# xmcd CD database file
#
# Track frame offsets:
#	150
#	13501
#	28287
#	43247
#	56337
#	70151
#	84565
#	95273
#	105749
#	116102
#	132289
#	142041
#	154786
#	165924
#	178558
#	192752
#	206924
#	218227
#	231304
#	241861
#	254122
#	270559
#	283346
#	297997
#	310150
#	321548
#	332569
#
# Disc length: 4590 seconds
#
# Revision: 0
# Processed by: cddbd v1.5.2PL0 Copyright (c) Steve Scherf et al.
# Submitted via: CDex 1.51
#
DISCID=9e11ec1b
DTITLE=Dinah Washington - Complete Don Costa Recordings CD01
DYEAR=1962
DGENRE=Jazz
TTITLE0=I'll Be Around
TTITLE1=For All We Know
TTITLE2=Just Friends
TTITLE3=I'm Gonna Laugh You Out Of MyLife
TTITLE4=Loveer man
TTITLE5=Say It Isn't So
TTITLE6=That Old Feeling
TTITLE7=Love, I Found You Gone
TTITLE8=On The Street Of Regret
TTITLE9=The Man That Got Away
TTITLE10=Baby, Won't You Please Come Home
TTITLE11=I Don't Know You Anymore
TTITLE12=Someone Else Is Taking My Place
TTITLE13=He's Gone Again
TTITLE14=I Don't Know About You
TTITLE15=There I Go
TTITLE16=You're A Sweetheart
TTITLE17=I'll Close My Eyes
TTITLE18=Do Nothing Til You Hear From Me
TTITLE19=My Devotion
TTITLE20=If It's The Last Thing I Do
TTITLE21=Our Love
TTITLE22=It's A Mean Old Man's World
TTITLE23=Was It Like That
TTITLE24=Fly Me To The Moon
TTITLE25=I Wouldn't Know What To Do
TTITLE26=No Hard Feelings
EXTD=YEAR: 1962
EXTT0=
EXTT1=
EXTT2=
EXTT3=
EXTT4=
EXTT5=
EXTT6=
EXTT7=
EXTT8=
EXTT9=
EXTT10=
EXTT11=
EXTT12=
EXTT13=
EXTT14=
EXTT15=
EXTT16=
EXTT17=
EXTT18=
EXTT19=
EXTT20=
EXTT21=
EXTT22=
EXTT23=
EXTT24=
EXTT25=
EXTT26=
PLAYORDER=
